#Comment line ignore any data following # character 
#Hierarchical Translation and Rotation (.htr) file 
[Header]	
#Header keywords are followed by a single value 
FileType HTR		#Single word string
DataType HTRS		#Translation followed by rotation and scale data
FileVersion 1		#integer
NumSegments 84		#integer
NumFrames 2		#integer
DataFrameRate 30		#integer, data frame rate in this file
EulerRotationOrder ZYX
CalibrationUnits mm
RotationUnits Degrees
GlobalAxisofGravity Y
BoneLengthAxis Y
ScaleFactor 1.00
[SegmentNames&Hierarchy]
#CHILD	PARENT
MASTER GLOBAL
root MASTER
chest root
L_mid_tent01 root
R_mid_tent01 root
spine01 root
Bip01_Neck chest
L_humerus chest
R_humerus chest
weapon_bone chest
Bip01_Head Bip01_Neck
eye_left_bone Bip01_Head
eye_right_bone Bip01_Head
L_forearm L_humerus
L_front_hand L_forearm
L_weapon_bone L_forearm
L_front_hand01_01 L_front_hand
L_front_hand02_01 L_front_hand
L_front_hand03_01 L_front_hand
L_front_hand01_02 L_front_hand01_01
L_front_hand02_02 L_front_hand02_01
L_front_hand03_02 L_front_hand03_01
R_forearm R_humerus
R_front_hand R_forearm
R_weapon_bone R_forearm
R_front_hand01_01 R_front_hand
R_front_hand02_01 R_front_hand
R_front_hand03_01 R_front_hand
R_front_hand01_02 R_front_hand01_01
R_front_hand02_02 R_front_hand02_01
R_front_hand03_02 R_front_hand03_01
null_rope01_connect L_mid_tent01
Rope1_Seg01 null_rope01_connect
Rope1_Seg02 Rope1_Seg01
Rope1_Seg03 Rope1_Seg02
Rope1_Seg04 Rope1_Seg03
Rope1_Seg05 Rope1_Seg04
Rope1_Seg06 Rope1_Seg05
Rope1_Seg07 Rope1_Seg06
Rope1_Seg09 Rope1_Seg07
L_mid_hand01 Rope1_Seg09
L_mid_hand02 Rope1_Seg09
L_mid_hand03 Rope1_Seg09
null_rope02_connect R_mid_tent01
Rope2_Seg01 null_rope02_connect
Rope2_Seg02 Rope2_Seg01
Rope2_Seg03 Rope2_Seg02
Rope2_Seg04 Rope2_Seg03
Rope2_Seg05 Rope2_Seg04
Rope2_Seg06 Rope2_Seg05
Rope2_Seg07 Rope2_Seg06
Rope2_Seg09 Rope2_Seg07
R_mid_hand01 Rope2_Seg09
R_mid_hand02 Rope2_Seg09
R_mid_hand03 Rope2_Seg09
spine02 spine01
spine03 spine02
pelvis spine03
null_rope03_connect pelvis
null_rope04_connect pelvis
Rope3_Seg01 null_rope03_connect
Rope3_Seg02 Rope3_Seg01
Rope3_Seg03 Rope3_Seg02
Rope3_Seg04 Rope3_Seg03
Rope3_Seg05 Rope3_Seg04
Rope3_Seg06 Rope3_Seg05
Rope3_Seg07 Rope3_Seg06
Rope3_Seg08 Rope3_Seg07
Rope3_Seg09 Rope3_Seg08
R_rear_hand01 Rope3_Seg09
R_rear_hand02 Rope3_Seg09
R_rear_hand03 Rope3_Seg09
Rope4_Seg01 null_rope04_connect
Rope4_Seg02 Rope4_Seg01
Rope4_Seg03 Rope4_Seg02
Rope4_Seg04 Rope4_Seg03
Rope4_Seg05 Rope4_Seg04
Rope4_Seg06 Rope4_Seg05
Rope4_Seg07 Rope4_Seg06
Rope4_Seg08 Rope4_Seg07
Rope4_Seg09 Rope4_Seg08
L_rear_hand01 Rope4_Seg09
L_rear_hand02 Rope4_Seg09
L_rear_hand03 Rope4_Seg09
[BasePosition]
#SegmentName Tx, Ty, Tz, Rx, Ry, Rz, BoneLength
MASTER 0.000000 0.000000 0.000000 -90.000000 0.000000 0.000000 10.000000 
root 0.000000 0.000000 0.000000 0.000000 0.000000 0.000000 10.000000 
chest 0.000000 0.000000 0.000000 0.000000 0.000000 0.000000 10.000000 
L_mid_tent01 0.000000 0.000000 0.000000 0.000000 0.000000 0.000000 10.000000 
R_mid_tent01 0.000000 0.000000 0.000000 0.000000 0.000000 0.000000 10.000000 
spine01 0.000000 0.000000 0.000000 0.000000 0.000000 0.000000 10.000000 
Bip01_Neck 0.000000 0.000000 0.000000 0.000000 0.000000 0.000000 10.000000 
L_humerus 0.000000 0.000000 0.000000 0.000000 0.000000 0.000000 10.000000 
R_humerus 0.000000 0.000000 0.000000 0.000000 0.000000 0.000000 10.000000 
weapon_bone 0.000000 0.000000 0.000000 0.000000 0.000000 0.000000 10.000000 
Bip01_Head 0.000000 0.000000 0.000000 0.000000 0.000000 0.000000 10.000000 
eye_left_bone 0.000000 0.000000 0.000000 0.000000 0.000000 0.000000 10.000000 
eye_right_bone 0.000000 0.000000 0.000000 0.000000 0.000000 0.000000 10.000000 
L_forearm 0.000000 0.000000 0.000000 0.000000 0.000000 0.000000 10.000000 
L_front_hand 0.000000 0.000000 0.000000 0.000000 0.000000 0.000000 10.000000 
L_weapon_bone 0.000000 0.000000 0.000000 0.000000 0.000000 0.000000 10.000000 
L_front_hand01_01 0.000000 0.000000 0.000000 0.000000 0.000000 0.000000 10.000000 
L_front_hand02_01 0.000000 0.000000 0.000000 0.000000 0.000000 0.000000 10.000000 
L_front_hand03_01 0.000000 0.000000 0.000000 0.000000 0.000000 0.000000 10.000000 
L_front_hand01_02 0.000000 0.000000 0.000000 0.000000 0.000000 0.000000 10.000000 
L_front_hand02_02 0.000000 0.000000 0.000000 0.000000 0.000000 0.000000 10.000000 
L_front_hand03_02 0.000000 0.000000 0.000000 0.000000 0.000000 0.000000 10.000000 
R_forearm 0.000000 0.000000 0.000000 0.000000 0.000000 0.000000 10.000000 
R_front_hand 0.000000 0.000000 0.000000 0.000000 0.000000 0.000000 10.000000 
R_weapon_bone 0.000000 0.000000 0.000000 0.000000 0.000000 0.000000 10.000000 
R_front_hand01_01 0.000000 0.000000 0.000000 0.000000 0.000000 0.000000 10.000000 
R_front_hand02_01 0.000000 0.000000 0.000000 0.000000 0.000000 0.000000 10.000000 
R_front_hand03_01 0.000000 0.000000 0.000000 0.000000 0.000000 0.000000 10.000000 
R_front_hand01_02 0.000000 0.000000 0.000000 0.000000 0.000000 0.000000 10.000000 
R_front_hand02_02 0.000000 0.000000 0.000000 0.000000 0.000000 0.000000 10.000000 
R_front_hand03_02 0.000000 0.000000 0.000000 0.000000 0.000000 0.000000 10.000000 
null_rope01_connect 0.000000 0.000000 0.000000 0.000000 0.000000 0.000000 10.000000 
Rope1_Seg01 0.000000 0.000000 0.000000 0.000000 0.000000 0.000000 10.000000 
Rope1_Seg02 0.000000 0.000000 0.000000 0.000000 0.000000 0.000000 10.000000 
Rope1_Seg03 0.000000 0.000000 0.000000 0.000000 0.000000 0.000000 10.000000 
Rope1_Seg04 0.000000 0.000000 0.000000 0.000000 0.000000 0.000000 10.000000 
Rope1_Seg05 0.000000 0.000000 0.000000 0.000000 0.000000 0.000000 10.000000 
Rope1_Seg06 0.000000 0.000000 0.000000 0.000000 0.000000 0.000000 10.000000 
Rope1_Seg07 0.000000 0.000000 0.000000 0.000000 0.000000 0.000000 10.000000 
Rope1_Seg09 0.000000 0.000000 0.000000 0.000000 0.000000 0.000000 10.000000 
L_mid_hand01 0.000000 0.000000 0.000000 0.000000 0.000000 0.000000 10.000000 
L_mid_hand02 0.000000 0.000000 0.000000 0.000000 0.000000 0.000000 10.000000 
L_mid_hand03 0.000000 0.000000 0.000000 0.000000 0.000000 0.000000 10.000000 
null_rope02_connect 0.000000 0.000000 0.000000 0.000000 0.000000 0.000000 10.000000 
Rope2_Seg01 0.000000 0.000000 0.000000 0.000000 0.000000 0.000000 10.000000 
Rope2_Seg02 0.000000 0.000000 0.000000 0.000000 0.000000 0.000000 10.000000 
Rope2_Seg03 0.000000 0.000000 0.000000 0.000000 0.000000 0.000000 10.000000 
Rope2_Seg04 0.000000 0.000000 0.000000 0.000000 0.000000 0.000000 10.000000 
Rope2_Seg05 0.000000 0.000000 0.000000 0.000000 0.000000 0.000000 10.000000 
Rope2_Seg06 0.000000 0.000000 0.000000 0.000000 0.000000 0.000000 10.000000 
Rope2_Seg07 0.000000 0.000000 0.000000 0.000000 0.000000 0.000000 10.000000 
Rope2_Seg09 0.000000 0.000000 0.000000 0.000000 0.000000 0.000000 10.000000 
R_mid_hand01 0.000000 0.000000 0.000000 0.000000 0.000000 0.000000 10.000000 
R_mid_hand02 0.000000 0.000000 0.000000 0.000000 0.000000 0.000000 10.000000 
R_mid_hand03 0.000000 0.000000 0.000000 0.000000 0.000000 0.000000 10.000000 
spine02 0.000000 0.000000 0.000000 0.000000 0.000000 0.000000 10.000000 
spine03 0.000000 0.000000 0.000000 0.000000 0.000000 0.000000 10.000000 
pelvis 0.000000 0.000000 0.000000 0.000000 0.000000 0.000000 10.000000 
null_rope03_connect 0.000000 0.000000 0.000000 0.000000 0.000000 0.000000 10.000000 
null_rope04_connect 0.000000 0.000000 0.000000 0.000000 0.000000 0.000000 10.000000 
Rope3_Seg01 0.000000 0.000000 0.000000 0.000000 0.000000 0.000000 10.000000 
Rope3_Seg02 0.000000 0.000000 0.000000 0.000000 0.000000 0.000000 10.000000 
Rope3_Seg03 0.000000 0.000000 0.000000 0.000000 0.000000 0.000000 10.000000 
Rope3_Seg04 0.000000 0.000000 0.000000 0.000000 0.000000 0.000000 10.000000 
Rope3_Seg05 0.000000 0.000000 0.000000 0.000000 0.000000 0.000000 10.000000 
Rope3_Seg06 0.000000 0.000000 0.000000 0.000000 0.000000 0.000000 10.000000 
Rope3_Seg07 0.000000 0.000000 0.000000 0.000000 0.000000 0.000000 10.000000 
Rope3_Seg08 0.000000 0.000000 0.000000 0.000000 0.000000 0.000000 10.000000 
Rope3_Seg09 0.000000 0.000000 0.000000 0.000000 0.000000 0.000000 10.000000 
R_rear_hand01 0.000000 0.000000 0.000000 0.000000 0.000000 0.000000 10.000000 
R_rear_hand02 0.000000 0.000000 0.000000 0.000000 0.000000 0.000000 10.000000 
R_rear_hand03 0.000000 0.000000 0.000000 0.000000 0.000000 0.000000 10.000000 
Rope4_Seg01 0.000000 0.000000 0.000000 0.000000 0.000000 0.000000 10.000000 
Rope4_Seg02 0.000000 0.000000 0.000000 0.000000 0.000000 0.000000 10.000000 
Rope4_Seg03 0.000000 0.000000 0.000000 0.000000 0.000000 0.000000 10.000000 
Rope4_Seg04 0.000000 0.000000 0.000000 0.000000 0.000000 0.000000 10.000000 
Rope4_Seg05 0.000000 0.000000 0.000000 0.000000 0.000000 0.000000 10.000000 
Rope4_Seg06 0.000000 0.000000 0.000000 0.000000 0.000000 0.000000 10.000000 
Rope4_Seg07 0.000000 0.000000 0.000000 0.000000 0.000000 0.000000 10.000000 
Rope4_Seg08 0.000000 0.000000 0.000000 0.000000 0.000000 0.000000 10.000000 
Rope4_Seg09 0.000000 0.000000 0.000000 0.000000 0.000000 0.000000 10.000000 
L_rear_hand01 0.000000 0.000000 0.000000 0.000000 0.000000 0.000000 10.000000 
L_rear_hand02 0.000000 0.000000 0.000000 0.000000 0.000000 0.000000 10.000000 
L_rear_hand03 0.000000 0.000000 0.000000 0.000000 0.000000 0.000000 10.000000 
#Beginning of Data. Separated by tabs
#Fr	Tx	Ty	Tz	Rx	Ry	Rz	SF
[MASTER]
1 0.000000 0.000000 0.000000 0.001660 0.001660 0.001660 0.000000
2 0.000000 0.000000 0.000000 0.001660 0.001660 0.001660 0.000000
[root]
1 -16.502293 -62.822109 1500.000000 -87.351410 -36.141411 -81.916740 1501.405640
2 -16.502293 -62.484859 1499.758545 -88.251274 -33.714478 -83.543945 1501.150391
[chest]
1 -84.512650 -34.090519 0.000000 -2.019906 0.602782 171.823990 91.129311
2 -84.512650 -34.090519 0.000000 -3.371394 0.687523 166.055054 91.129311
[L_mid_tent01]
1 27.299271 22.178116 -249.918350 -1.379268 36.511192 66.497536 252.381256
2 27.299265 22.178154 -249.918365 -0.293354 25.759542 68.389481 252.381271
[R_mid_tent01]
1 23.228794 24.509907 226.238495 173.895706 -30.891880 58.389252 228.744751
2 23.228794 24.509907 226.238495 168.622986 -18.794060 72.577217 228.744751
[spine01]
1 -0.361383 -0.195265 0.000000 0.001884 0.001399 16.802958 0.410763
2 -0.361383 -0.195265 0.000000 0.001887 0.001396 17.012850 0.410763
[Bip01_Neck]
1 165.484543 71.581718 0.000119 176.643677 -1.657967 43.431911 180.302734
2 165.484543 71.581718 0.000119 176.643677 -1.657967 43.431911 180.302734
[L_humerus]
1 -13.983130 -135.272980 -120.471481 156.317398 70.210068 -112.010254 181.680161
2 -13.983130 -135.272980 -120.471481 166.630630 62.040386 -97.816879 181.680161
[R_humerus]
1 -13.983309 -135.273102 125.287651 -172.382263 -66.903831 -92.553993 184.909012
2 -13.983309 -135.273102 125.287651 -176.678741 -58.040085 -84.324348 184.909012
[weapon_bone]
1 235.964890 -300.705902 0.000000 0.000000 -89.951546 -128.212341 382.234833
2 235.964890 -300.705902 0.000000 0.000000 -89.951546 -128.212341 382.234833
[Bip01_Head]
1 213.444321 185.715561 11.776924 4.962490 2.797846 -43.898743 283.173859
2 213.444305 185.715561 11.776925 4.962490 2.797846 -43.898750 283.173859
[eye_left_bone]
1 -24.626970 125.451866 -64.772606 0.000000 -90.000000 -99.840431 143.318359
2 -24.626970 125.451866 -64.772606 0.000000 -90.000000 -99.840431 143.318359
[eye_right_bone]
1 -24.626970 125.451866 64.327362 0.000000 -89.965736 80.156380 143.117676
2 -24.626970 125.451866 64.327362 0.000000 -89.980217 80.156380 143.117676
[L_forearm]
1 322.776093 0.000000 -0.000119 0.000119 -0.002344 -95.807457 322.776093
2 322.776093 0.000000 -0.000119 0.000195 -0.002339 -99.506660 322.776093
[L_front_hand]
1 241.149185 -0.042021 -3.300071 -178.667953 -1.835447 -27.422350 241.171753
2 241.149185 -0.042021 -3.300071 -179.420227 -1.792203 -29.930391 241.171753
[L_weapon_bone]
1 156.183838 0.000000 0.000000 0.000014 0.000007 0.000001 156.183838
2 156.183838 0.000000 0.000000 0.000014 0.000007 0.000001 156.183838
[L_front_hand01_01]
1 86.095154 20.947098 -0.655860 -0.366594 -0.477154 75.385574 88.609184
2 86.095154 20.947098 -0.655860 -0.366594 -0.477154 75.385574 88.609184
[L_front_hand02_01]
1 86.935165 -11.437475 24.513514 154.399796 -59.883835 -61.369587 91.046425
2 86.935165 -11.437475 24.513514 154.399811 -59.883842 -61.369587 91.046425
[L_front_hand03_01]
1 86.637497 -14.123976 -20.424902 -153.913849 58.118122 -62.702866 90.126129
2 86.637497 -14.123976 -20.424902 -153.913849 58.118122 -62.702866 90.126129
[L_front_hand01_02]
1 71.020905 -0.000179 0.000030 0.000334 -0.002323 -106.379684 71.020905
2 71.020905 -0.000179 0.000030 0.000334 -0.002323 -106.379684 71.020905
[L_front_hand02_02]
1 71.020927 -0.000119 0.000060 0.000334 -0.002323 -106.379684 71.020927
2 71.020927 -0.000119 0.000060 0.000334 -0.002323 -106.379684 71.020927
[L_front_hand03_02]
1 71.020905 -0.000060 0.000060 0.000334 -0.002323 -106.379684 71.020905
2 71.020905 -0.000060 0.000060 0.000334 -0.002323 -106.379684 71.020905
[R_forearm]
1 322.776428 -0.000060 0.000030 0.209504 0.012586 -94.339050 322.776428
2 322.776428 -0.000060 0.000030 0.208496 0.026334 -98.047104 322.776428
[R_front_hand]
1 238.847015 -0.006795 2.210259 -2.635298 -10.645461 -26.312506 238.857239
2 238.847015 -0.006795 2.210259 -1.250527 -10.742031 -29.278580 238.857239
[R_weapon_bone]
1 155.664093 0.002503 -0.000030 0.003487 0.001180 -90.988930 155.664078
2 155.664093 0.002503 -0.000030 0.003487 0.001180 -90.988930 155.664078
[R_front_hand01_01]
1 87.624611 14.231146 22.918642 -154.633499 -59.950619 61.746044 91.683487
2 87.624611 14.231146 22.918642 -154.633499 -59.950634 61.746063 91.683487
[R_front_hand02_01]
1 89.356956 14.367283 -19.491137 154.602661 58.302849 63.744389 92.579636
2 89.356956 14.367283 -19.491137 154.602661 58.302849 63.744389 92.579636
[R_front_hand03_01]
1 87.286232 -22.307278 -0.143439 0.162155 -0.423168 -75.767921 90.091743
2 87.286232 -22.307278 -0.143439 0.162155 -0.423168 -75.767921 90.091743
[R_front_hand01_02]
1 71.020905 0.000060 0.000119 0.002323 -0.000334 106.381714 71.020905
2 71.020905 0.000060 0.000119 0.002323 -0.000334 106.381714 71.020905
[R_front_hand02_02]
1 71.020844 -0.000030 -0.000119 0.002323 -0.000334 106.381714 71.020836
2 71.020844 -0.000030 -0.000119 0.002323 -0.000334 106.381714 71.020836
[R_front_hand03_02]
1 71.020905 0.000000 0.000030 0.002323 -0.000334 106.381714 71.020905
2 71.020905 0.000000 0.000030 0.002323 -0.000334 106.381714 71.020905
[null_rope01_connect]
1 328.732483 0.000000 -0.000238 -129.136948 -62.549152 -170.723663 328.732483
2 328.732483 0.000000 -0.000238 -134.271988 -70.897217 -169.847427 328.732483
[Rope1_Seg01]
1 -0.000038 -0.000076 0.000153 163.837051 35.364464 -140.873718 0.000175
2 -0.000037 -0.000073 0.000146 128.160629 23.440424 -127.508461 0.000168
[Rope1_Seg02]
1 139.999863 -0.000179 0.000000 10.425439 -22.157286 10.105836 139.999863
2 139.999863 -0.000179 0.000000 43.595016 -20.588541 -3.148935 139.999863
[Rope1_Seg03]
1 139.999924 0.000060 -0.000060 -2.061033 -29.180225 22.882904 139.999924
2 139.999924 0.000060 -0.000060 -4.031146 -37.185837 32.545216 139.999924
[Rope1_Seg04]
1 139.999924 -0.000060 -0.000119 -2.549400 -17.916208 15.450698 139.999924
2 139.999924 -0.000060 -0.000119 -4.674372 -23.744358 22.454277 139.999924
[Rope1_Seg05]
1 139.999832 0.000119 -0.000060 -1.341285 -10.722192 11.138121 139.999832
2 139.999832 0.000119 -0.000060 -2.289102 -12.154545 9.263764 139.999832
[Rope1_Seg06]
1 139.999954 0.000119 -0.000060 -0.732594 -7.305160 7.755637 139.999954
2 139.999954 0.000119 -0.000060 -1.358924 -6.428987 4.889564 139.999954
[Rope1_Seg07]
1 139.999985 0.000060 0.000000 -0.532482 -4.226279 4.139853 139.999985
2 139.999985 0.000060 0.000000 -0.908509 -3.722471 2.723389 139.999985
[Rope1_Seg09]
1 121.602913 0.000119 -0.000089 -89.793175 -1.359789 0.847147 121.602913
2 121.602913 0.000119 -0.000089 -89.793175 -1.359789 0.847147 121.602913
[L_mid_hand01]
1 103.859421 1.038730 8.195221 122.491409 -62.517220 -29.998974 104.187431
2 103.859421 1.038730 8.195221 124.819580 -64.267235 -32.597427 104.187431
[L_mid_hand02]
1 105.572853 -4.139662 -10.864139 -163.295013 41.893867 -65.202042 106.211075
2 105.572853 -4.139662 -10.864139 -165.125824 42.469841 -67.932709 106.211075
[L_mid_hand03]
1 104.641464 17.579376 -3.913581 -7.977071 17.043644 68.353111 106.179977
2 104.641464 17.579376 -3.913581 -7.329667 17.320337 70.532539 106.179977
[null_rope02_connect]
1 328.732849 0.000179 -0.000119 -101.044174 48.697525 9.573241 328.732849
2 328.732849 0.000179 -0.000119 -97.960236 60.585732 28.988638 328.732849
[Rope2_Seg01]
1 0.000095 0.000153 0.000000 -53.229061 14.932822 -16.261442 0.000180
2 0.000095 0.000153 0.000003 -13.103592 -6.891282 -22.434931 0.000180
[Rope2_Seg02]
1 139.999741 -0.000060 -0.000119 -15.457642 -2.210795 11.456388 139.999756
2 139.999741 -0.000060 -0.000119 -17.581888 5.036056 10.808359 139.999756
[Rope2_Seg03]
1 140.000107 0.000030 0.000000 -14.397179 -9.377687 19.304338 140.000107
2 140.000107 0.000030 0.000000 -23.653177 2.741692 22.587130 140.000107
[Rope2_Seg04]
1 139.999802 0.000000 -0.000060 -9.155472 -19.108835 23.278465 139.999802
2 139.999802 0.000000 -0.000060 -15.754154 -8.864251 29.606630 139.999802
[Rope2_Seg05]
1 139.999985 -0.000060 0.000119 -2.513932 -15.012124 18.809635 139.999985
2 139.999985 -0.000060 0.000119 -4.498103 -10.891242 19.269487 139.999985
[Rope2_Seg06]
1 139.999893 -0.000030 -0.000119 1.238295 -6.639559 10.034814 139.999893
2 139.999893 -0.000030 -0.000119 -0.453929 -9.548752 15.852043 139.999893
[Rope2_Seg07]
1 139.999893 0.000060 -0.000060 1.148840 -3.513364 4.901369 139.999893
2 139.999893 0.000060 -0.000060 1.728918 -6.376309 10.855303 139.999893
[Rope2_Seg09]
1 121.338966 0.000089 -0.000060 33.793236 -1.359788 -0.847141 121.338966
2 121.338966 0.000089 -0.000060 33.793236 -1.359788 -0.847141 121.338966
[R_mid_hand01]
1 104.680779 11.144459 -10.335981 -21.814814 43.253063 62.439850 105.778534
2 104.680779 11.144459 -10.335981 -20.005522 43.977985 65.062431 105.778534
[R_mid_hand02]
1 104.070427 2.443552 8.231699 57.026505 -62.880825 30.539303 104.424065
2 104.070427 2.443552 8.231699 54.725475 -64.563515 33.105427 104.424065
[R_mid_hand03]
1 106.028137 -11.221827 -5.996406 -175.434525 15.155500 -70.298363 106.788818
2 106.028137 -11.221827 -5.996406 -175.984314 15.307883 -72.395805 106.788818
[spine02]
1 129.756927 0.001550 0.000119 -1.023899 -3.926965 6.770993 129.756927
2 129.756927 0.001550 0.000119 -0.986931 -4.031702 6.255313 129.756927
[spine03]
1 78.613892 0.085297 -4.898925 1.040681 4.146420 4.212376 78.766426
2 78.613899 0.085150 -4.898928 1.064293 4.316353 4.536989 78.766441
[pelvis]
1 169.435242 0.051022 0.000000 0.019518 -0.190233 -10.721436 169.435257
2 169.435242 0.051022 0.000000 0.017286 -0.120930 -10.070845 169.435257
[null_rope03_connect]
1 -1.257226 -2.466202 137.391083 78.750969 -80.324860 30.271816 137.418976
2 -1.257226 -2.466202 137.391083 80.089821 -82.740990 25.902712 137.418976
[null_rope04_connect]
1 -1.259640 -2.480268 -137.844437 78.750969 -80.324860 30.271816 137.872513
2 -1.259640 -2.480268 -137.844437 80.089821 -82.740990 25.902712 137.872513
[Rope3_Seg01]
1 -0.000038 0.000000 0.000000 -150.665878 -44.453487 -55.095062 0.000038
2 -0.000038 0.000000 -0.000006 -166.546600 -44.791386 -35.630913 0.000038
[Rope3_Seg02]
1 139.999924 -0.000119 0.000060 -21.074860 2.032231 -33.341270 139.999924
2 139.999924 -0.000119 0.000060 -22.734034 9.822041 -20.059673 139.999924
[Rope3_Seg03]
1 139.999924 -0.000119 0.000119 -34.704998 11.115533 -21.502695 139.999924
2 139.999924 -0.000119 0.000119 -31.713549 26.457972 -15.676191 139.999924
[Rope3_Seg04]
1 139.999924 0.000119 0.000000 -36.542740 19.412594 -15.990714 139.999924
2 139.999924 0.000119 0.000000 -16.214201 20.187204 -8.810432 139.999924
[Rope3_Seg05]
1 139.999924 -0.000238 0.000060 -19.725605 23.914108 -3.518108 139.999924
2 139.999924 -0.000238 0.000060 -22.213896 15.248554 -23.718985 139.999924
[Rope3_Seg06]
1 139.999893 -0.000119 -0.000060 -3.556953 9.279203 2.021480 139.999893
2 139.999893 -0.000119 -0.000060 -10.696461 11.079841 -7.869724 139.999893
[Rope3_Seg07]
1 139.999771 0.000060 -0.000119 -1.109123 4.943735 1.448882 139.999771
2 139.999771 0.000060 -0.000119 -4.070732 6.065889 -2.146943 139.999771
[Rope3_Seg08]
1 139.999985 -0.000060 0.000000 -0.244398 2.773462 0.871395 139.999985
2 139.999985 -0.000060 0.000000 -1.758158 3.400765 -0.941268 139.999985
[Rope3_Seg09]
1 90.185997 -0.000179 -0.000060 89.793228 -1.359877 -0.847183 90.185997
2 90.185997 -0.000179 -0.000060 89.793228 -1.359877 -0.847183 90.185997
[R_rear_hand01]
1 103.366196 -6.073594 -10.757982 -174.771057 24.138128 -66.790482 104.101845
2 103.366196 -6.073594 -10.757982 -175.750656 24.319431 -69.167931 104.101845
[R_rear_hand02]
1 100.509819 12.039542 -7.992327 -17.440544 35.165932 64.409729 101.543350
2 100.509819 12.039542 -7.992327 -15.958945 35.791550 66.963280 101.543350
[R_rear_hand03]
1 101.539970 5.215704 5.435467 76.143005 -65.573051 16.525120 101.819031
2 101.539970 5.215704 5.435467 74.885956 -67.678215 17.894732 101.819031
[Rope4_Seg01]
1 -0.000038 0.000000 0.000000 94.920441 -54.128201 -147.704926 0.000038
2 -0.000038 0.000000 -0.000006 85.349617 -51.275082 -139.920319 0.000038
[Rope4_Seg02]
1 139.999985 0.000060 0.000119 17.037056 -21.394541 6.616304 139.999985
2 139.999985 0.000060 0.000119 15.197622 -21.411335 6.997783 139.999985
[Rope4_Seg03]
1 139.999924 0.000000 -0.000238 39.850494 -23.022514 19.023487 139.999924
2 139.999924 0.000000 -0.000238 41.542255 -27.286463 21.282019 139.999924
[Rope4_Seg04]
1 139.999985 0.000000 0.000119 33.329464 -8.899583 34.442993 139.999985
2 139.999985 0.000000 0.000119 30.381248 -6.457927 34.902435 139.999985
[Rope4_Seg05]
1 139.999802 -0.000060 -0.000119 9.932453 5.957672 20.076057 139.999802
2 139.999802 -0.000060 -0.000119 8.986829 6.673546 20.267899 139.999802
[Rope4_Seg06]
1 139.999924 0.000000 0.000060 1.911939 3.323592 6.394390 139.999924
2 139.999924 0.000000 0.000060 1.655472 3.376083 6.501559 139.999924
[Rope4_Seg07]
1 139.999802 0.000000 0.000000 0.885762 2.002874 3.579260 139.999802
2 139.999802 0.000000 0.000000 0.737518 1.997460 3.601347 139.999802
[Rope4_Seg08]
1 139.999924 0.000000 0.000119 -1.115881 1.158877 1.998621 139.999924
2 139.999924 0.000000 0.000119 -1.195177 1.145528 2.007869 139.999924
[Rope4_Seg09]
1 90.185791 0.000060 0.000060 -135.617828 2.228885 0.850567 90.185791
2 90.185791 0.000060 0.000060 -135.617828 2.228885 0.850567 90.185791
[L_rear_hand01]
1 101.696655 -8.392275 -7.654577 -17.501701 -35.138012 115.701401 102.329041
2 101.696655 -8.392275 -7.654577 -16.003159 -35.771038 113.113571 102.329041
[L_rear_hand02]
1 102.726799 -1.568258 5.773216 76.184814 65.478874 163.526367 102.900848
2 102.726799 -1.568258 5.773216 74.920189 67.616348 162.147324 102.900848
[L_rear_hand03]
1 104.552910 9.721220 -10.420293 -174.728683 -24.129618 -113.309677 105.519653
2 104.552910 9.721220 -10.420293 -175.722000 -24.314543 -110.899895 105.519653
